<?xml version="1.0" standalone="no"?>
<!DOCTYPE svg PUBLIC "-//W3C//DTD SVG 1.1//EN" "http://www.w3.org/Graphics/SVG/1.1/DTD/svg11.dtd" >
<svg xmlns="http://www.w3.org/2000/svg" xmlns:xlink="http://www.w3.org/1999/xlink" version="1.1">
<metadata></metadata>
<defs>
<font id="new_zeleknormal" horiz-adv-x="675" >
<font-face units-per-em="2048" ascent="1638" descent="-410" />
<missing-glyph horiz-adv-x="827" />
<glyph horiz-adv-x="0" />
<glyph unicode="&#xd;" horiz-adv-x="827" />
<glyph unicode=" "  horiz-adv-x="827" />
<glyph unicode="&#x09;" horiz-adv-x="827" />
<glyph unicode="&#xa0;" horiz-adv-x="827" />
<glyph unicode="!" horiz-adv-x="581" d="M49 180q0 90 62.5 152.5t152.5 62.5t152.5 -62.5t62.5 -152.5t-62.5 -152.5t-152.5 -62.5t-152.5 62.5t-62.5 152.5zM61 428h404v1088l-404 -365v-723z" />
<glyph unicode="&#x22;" horiz-adv-x="995" d="M61 1511h373l-53 -604h-264zM537 1511h374l-55 -604h-264z" />
<glyph unicode="#" horiz-adv-x="1411" d="M51 389l39 256h207l35 219h-207l41 256h205l65 389h291l-63 -389h217l63 389h293l-61 -389h198l-39 -256h-200l-35 -219h207l-41 -256h-205l-66 -389h-293l62 389h-215l-64 -389h-290l63 389h-207zM588 645h217l37 219h-219z" />
<glyph unicode="$" horiz-adv-x="1310" d="M106 0h408v-43h404v123q90 29 147 123q70 115 70 297t-131 315q-123 125 -277 125h-166q-39 0 -74 25q-45 33 -45 79q0 47 39 77t84 30h430l373 365h-450v53h-404v-53h-57q-129 0 -240 -140.5t-111 -331.5q0 -223 129.5 -346t342.5 -123q156 0 155 -106 q0 -41 -31.5 -72.5t-70.5 -31.5h-525v-365z" />
<glyph unicode="%" horiz-adv-x="2152" d="M68 1071q0 199 96 322q106 135 301 135q188 0 295 -137q96 -125 96 -322q0 -201 -94 -321q-104 -133 -299 -134q-190 0 -297 136q-98 125 -98 321zM350 1071q0 -106 12 -156q25 -98 101 -98q72 0 96 96q12 49 12 152q0 111 -10 156q-22 102 -96 102q-76 0 -100 -96 q-14 -55 -15 -156zM729 0l440 1509h281l-440 -1509h-281zM1309 436q0 201 96 324q104 135 301 135q186 0 293 -139q98 -129 98 -322q0 -203 -94 -321q-102 -131 -299 -131q-190 0 -297 135q-98 125 -98 319zM1593 436q0 -106 13 -155q25 -98 100 -99q70 0 94 97 q12 49 12 149q0 113 -10 158q-23 102 -96 102q-74 0 -98 -96q-14 -55 -15 -156z" />
<glyph unicode="&#x26;" horiz-adv-x="1107" d="M41 444q0 182 115.5 314.5t296.5 132.5q-68 63 -105 129q-45 80 -45 162q0 160 121 248q109 80 272 79h271v-362h-176q-43 0 -73 -16.5t-30 -55.5q0 -29 18.5 -56.5t24.5 -37.5l264 -416h-411q-66 0 -108 -23.5t-42 -82.5t45 -82q31 -16 99 -17h473v-360h-453 q-240 0 -385 98q-172 117 -172 346z" />
<glyph unicode="'" horiz-adv-x="512" d="M59 1511h375l-53 -604h-268z" />
<glyph unicode="(" horiz-adv-x="645" d="M37 567q0 -213 143.5 -374.5t356.5 -192.5v365q-41 31 -69 76.5t-28 86.5v459q0 51 28 97t69 69v379q-217 -33 -358.5 -192.5t-141.5 -378.5v-394z" />
<glyph unicode=")" horiz-adv-x="659" d="M49 0q211 31 353.5 191.5t142.5 373.5v391q0 219 -141.5 381t-354.5 195v-379q39 -23 65.5 -69t26.5 -97v-459q0 -39 -27.5 -87t-64.5 -76v-365z" />
<glyph unicode="*" horiz-adv-x="1093" d="M49 1081l86 246l258 -88v272h256v-272l250 88l80 -246l-250 -84l164 -221l-211 -151l-162 221l-168 -221l-217 151l174 221z" />
<glyph unicode="+" horiz-adv-x="1230" d="M84 573v357h313v332h391v-332h314v-357h-314v-329h-391v329h-313z" />
<glyph unicode="," horiz-adv-x="526" d="M45 199q0 90 62.5 152.5t152.5 62.5t152.5 -62.5t62.5 -152.5q0 -63 -37 -123q-14 -23 -30 -37l-230 -207v168q-133 57 -133 199z" />
<glyph unicode="-" horiz-adv-x="1216" d="M90 575v357h1018v-357h-1018z" />
<glyph unicode="." horiz-adv-x="528" d="M43 184q0 90 62.5 152.5t152.5 62.5t152.5 -62.5t62.5 -152.5t-62.5 -152.5t-152.5 -62.5t-152.5 62.5t-62.5 152.5z" />
<glyph unicode="/" horiz-adv-x="743" d="M0 -164l354 1815h344l-354 -1815h-344z" />
<glyph unicode="0" horiz-adv-x="1742" d="M115 758q0 -362 211 -576q201 -203 516 -202q317 0 518 202q213 215 213 576q0 365 -209 575q-200 203 -522 203q-315 0 -516 -203q-211 -213 -211 -575zM518 758q0 184 72 291q84 123 252 122q166 0 252 -124q75 -111 75 -289q0 -184 -73 -291q-84 -123 -254 -123 q-166 0 -250 123q-74 109 -74 291z" />
<glyph unicode="1" horiz-adv-x="806" d="M-233 1151h403v-1151h403v1516h-403z" />
<glyph unicode="2" horiz-adv-x="1357" d="M96 0h1116v365h-538l389 337q55 49 94 125q55 106 55 224q0 201 -140 333t-322 132h-250l-404 -365h613q47 0 73.5 -28.5t26.5 -75.5q0 -39 -21 -68q-10 -16 -38 -39l-654 -575v-365z" />
<glyph unicode="3" horiz-adv-x="1300" d="M117 0h614q180 0 304 130t124 341q0 98 -50 179t-126 104q80 43 128 117.5t48 175.5q0 209 -122 339t-306 130h-211l-403 -365h536q47 0 74 -28.5t27 -75.5q0 -45 -27 -76t-74 -31h-536v-365h536q47 0 74 -28.5t27 -75.5q0 -45 -27 -75.5t-74 -30.5h-536v-365z" />
<glyph unicode="4" horiz-adv-x="1728" d="M61 205h940v-205h404v1124l-404 -352v-197h-337l1036 941h-594l-1045 -941v-370z" />
<glyph unicode="5" horiz-adv-x="1433" d="M135 0h506q217 0 344 143q117 133 117 332q0 215 -115 336q-123 129 -348 129l-100 2v209h489l406 365h-895l-404 -365v-211v-365h465q47 0 73.5 -28.5t26.5 -75.5q0 -45 -26.5 -75.5t-73.5 -30.5h-465v-365z" />
<glyph unicode="6" horiz-adv-x="1499" d="M68 506q0 -238 165.5 -408t401.5 -170t401.5 170t165.5 408q0 152 -61 264q-35 63 -121 152l-311 -271q41 -16 64.5 -57t23.5 -88q0 -66 -47.5 -115t-114.5 -49q-68 0 -116 48t-48 116q0 41 8 67.5t45 61.5l971 881h-594l-651 -590q-74 -70 -125 -181q-57 -123 -57 -239z " />
<glyph unicode="7" horiz-adv-x="1775" d="M104 -33l1723 1549h-1282l-404 -365h682l-719 -649v-535z" />
<glyph unicode="8" horiz-adv-x="1357" d="M129 453q0 -203 152.5 -338t384.5 -135q229 0 383.5 136t154.5 337q0 80 -24 153q-35 104 -111 146q78 57 106.5 123.5t28.5 154.5q0 215 -155.5 360.5t-382.5 145.5q-225 0 -381 -145.5t-156 -360.5q0 -82 21 -139q30 -90 110 -139q-76 -55 -108 -154q-23 -68 -23 -145z M522 453q0 61 41.5 102t102.5 41t102 -41t41 -102t-41 -102.5t-102 -41.5t-102.5 41t-41.5 103zM522 1030q0 61 41.5 102.5t102.5 41.5t102 -41t41 -103q0 -61 -41 -102t-102 -41t-102.5 41t-41.5 102z" />
<glyph unicode="9" horiz-adv-x="1265" d="M76 1008q0 -152 61 -265q35 -63 121 -151l311 270q-41 16 -64.5 57.5t-23.5 88.5q0 66 47 114.5t115 48.5t116 -48t48 -115q0 -41 -8 -67.5t-45 -61.5l-539 -480v-508l813 697q74 70 128 186.5t54 233.5q0 238 -165.5 407.5t-401.5 169.5t-401.5 -170t-165.5 -407z" />
<glyph unicode=":" horiz-adv-x="559" d="M33 858q0 90 62.5 152.5t152.5 62.5t152.5 -62.5t62.5 -152.5t-62.5 -152.5t-152.5 -62.5t-152.5 62.5t-62.5 152.5zM37 182q0 90 62.5 152.5t152.5 62.5t152.5 -62.5t62.5 -152.5t-62.5 -152.5t-152.5 -62.5t-152.5 62.5t-62.5 152.5z" />
<glyph unicode=";" horiz-adv-x="559" d="M33 858q0 90 62.5 152.5t152.5 62.5t152.5 -62.5t62.5 -152.5t-62.5 -152.5t-152.5 -62.5t-152.5 62.5t-62.5 152.5zM37 182q0 90 62.5 152.5t152.5 62.5t152.5 -62.5t62.5 -152.5q0 -63 -37 -123q-14 -23 -31 -36l-229 -207v168q-133 57 -133 198z" />
<glyph unicode="&#x3c;" horiz-adv-x="1120" d="M43 614v304l981 522v-361l-598 -315l598 -315v-359z" />
<glyph unicode="=" horiz-adv-x="1302" d="M127 332v358h1018v-358h-1018zM127 817v359h1018v-359h-1018z" />
<glyph unicode="&#x3e;" horiz-adv-x="1120" d="M41 90l981 524v304l-981 522v-361l598 -315l-598 -315v-359z" />
<glyph unicode="?" horiz-adv-x="1357" d="M96 1151h613q47 0 73.5 -28.5t26.5 -75.5q0 -39 -21 -68q-10 -16 -38 -39l-627 -551h577l363 313q55 49 94 125q55 106 55 224q0 201 -140 333t-322 132h-250zM190 150q0 90 63 152.5t153 62.5t152.5 -62.5t62.5 -152.5t-62.5 -153t-152.5 -63t-153 62.5t-63 153.5z" />
<glyph unicode="@" horiz-adv-x="1552" d="M131 776q0 279 193.5 464t461.5 185q233 0 381 -125q164 -139 164 -397q0 -182 -98 -302t-227 -120h-244q-143 0 -242 76q-106 84 -106 223q0 135 102 219t238 84h213v-360h-179v207q-74 0 -130 -39t-56 -109q0 -156 182 -155h222q86 0 143 88q51 78 51 170 q0 156 -86 268q-115 150 -344 150q-190 0 -344 -148q-164 -156 -164 -379q0 -238 168 -393q154 -143 356 -143q180 0 344 133l70 -101q-180 -156 -414 -155q-272 0 -463.5 193.5t-191.5 465.5z" />
<glyph unicode="A" horiz-adv-x="1683" d="M23 -35l1122 1012v-402h-318l-405 -370h723v-205h403v1516h-403l-1122 -1016v-535z" />
<glyph unicode="B" horiz-adv-x="1558" d="M104 0h404v1151h442q47 0 74 -28.5t27 -75.5q0 -45 -27 -76t-74 -31h-352v-365h352q47 0 74 -28.5t27 -75.5q0 -45 -27 -75.5t-74 -30.5h-352v-365h428q180 0 304 130t124 341q0 98 -50 179t-126 104q80 43 128 117.5t48 175.5q0 209 -122 339t-306 130h-518l-404 -365 v-1151z" />
<glyph unicode="C" horiz-adv-x="1327" d="M115 758q0 319 245.5 538.5t606.5 219.5h516l-404 -365h-84q-203 0 -340 -112.5t-137 -280.5q0 -166 138.5 -279.5t338.5 -113.5h84v-365h-112q-362 0 -607 218t-245 540z" />
<glyph unicode="D" horiz-adv-x="1411" d="M92 0h404v1151q162 0 281.5 -118t119.5 -277q0 -143 -117 -273q-108 -118 -193 -118h-1v-365q272 0 493 227.5t221 528.5q0 303 -228 531.5t-531 228.5h-45l-404 -365v-1151z" />
<glyph unicode="E" horiz-adv-x="1402" d="M113 0v940v211l403 365h1040l-403 -365h-637v-211h637v-365h-637v-210h637v-365h-1040z" />
<glyph unicode="F" horiz-adv-x="1398" d="M109 0v940v211l403 365h635h405l-403 -365h-637v-211h637v-365h-637v-575h-403z" />
<glyph unicode="G" horiz-adv-x="1521" d="M82 756q0 303 228.5 531.5t531.5 228.5h852l-404 -365h-403q-162 0 -282 -118t-120 -277q0 -156 122 -273.5t280 -117.5v575h403v-940h-448q-303 0 -531.5 226.5t-228.5 529.5z" />
<glyph unicode="H" horiz-adv-x="1529" d="M109 0h403v575h512v-575h403v1516h-403v-576h-512v612l-403 -364v-1188z" />
<glyph unicode="I" d="M139 0h404v1552l-404 -364v-1188z" />
<glyph unicode="J" d="M-68 -211v-364h183q180 0 304 130t124 341v1656l-404 -364v-1292q0 -47 -27.5 -77t-74.5 -30h-105z" />
<glyph unicode="K" horiz-adv-x="1546" d="M104 0h404v362l182 166l629 -563v524l-334 306l756 721h-553l-680 -621v653l-404 -364v-649v-535z" />
<glyph unicode="L" horiz-adv-x="1040" d="M111 0v365v786l403 365v-1151h465v-365h-868z" />
<glyph unicode="M" horiz-adv-x="1966" d="M68 -31l671 606v-608l682 608v-575h424v1554l-616 -540v538l-1161 -1048v-535z" />
<glyph unicode="N" horiz-adv-x="1687" d="M115 0v1204l346 312l698 -635v635h404v-1543l-1045 940v-913h-403z" />
<glyph unicode="O" horiz-adv-x="1644" d="M90 758q0 -362 211 -576q200 -202 513 -202h3q317 0 518 202q213 215 213 576q0 365 -209 575q-200 203 -522 203q-315 0 -516 -203q-211 -213 -211 -575zM565 1049q83 122 249 122h3q166 0 252 -124q76 -111 76 -289q0 -184 -74 -291q-84 -123 -254 -123 q-166 0 -250 123q-73 108 -73 286q0 189 71 296z" />
<glyph unicode="P" horiz-adv-x="1353" d="M109 0h403v1151h180q84 0 147.5 -59.5t63.5 -151.5q0 -94 -62.5 -152.5t-148.5 -58.5h-86v-364h86q211 0 379 141q197 166 197 434q0 266 -195 432q-168 143 -379 144h-182l-403 -365v-1151z" />
<glyph unicode="Q" horiz-adv-x="1644" d="M90 758q0 -362 211 -576q200 -202 513 -202h3h328l403 364h-731q-166 0 -250 123q-73 108 -73 286q0 189 71 296q83 122 249 122h3q166 0 252 -124q76 -111 76 -289q0 -109 -25.5 -193t-85.5 -141h408q55 59 80.5 146t25.5 188q0 365 -209 575q-201 203 -522 203 q-322 0 -520 -203q-207 -211 -207 -575z" />
<glyph unicode="R" horiz-adv-x="1404" d="M102 0h404v1151h180q125 0 172 -57q39 -47 39 -154q0 -92 -62.5 -150.5t-148.5 -58.5h-158l797 -756v533l-207 180q90 78 119 115q63 82 63 184q0 283 -155 410q-145 119 -457 119h-182l-404 -365v-1151z" />
<glyph unicode="S" horiz-adv-x="1271" d="M61 0v365h527q39 0 68.5 29.5t29.5 70.5q0 110 -148 110h-3q-201 0 -333 142.5t-132 326.5t145 328t324 144h911l-403 -365h-469q-39 0 -71 -29.5t-32 -70.5q0 -111 156 -111q184 0 317 -127q143 -135 144 -342q0 -205 -146 -342q-137 -129 -323 -129h-562z" />
<glyph unicode="T" horiz-adv-x="1124" d="M2 1151h424v-1151h403v1151h84l404 365h-911z" />
<glyph unicode="U" horiz-adv-x="1337" d="M111 551q0 -328 182 -469q137 -106 381 -107q242 0 379 105q184 141 184 471v965h-403v-965q0 -115 -42 -163t-118 -48q-74 0 -113 43q-47 53 -47 168v999l-403 -364v-635z" />
<glyph unicode="V" horiz-adv-x="1558" d="M100 -23l1737 1555h-670l-643 -576v576l-424 -365v-1190z" />
<glyph unicode="W" horiz-adv-x="2224" d="M143 -23l617 541v-538l1720 1552h-590l-641 -576v609l-682 -609v576l-424 -365v-1190z" />
<glyph unicode="X" horiz-adv-x="1683" d="M86 -45l731 659l727 -651v524l-432 394l709 635h-602l-406 -365l-434 399l-285 -256l418 -411l-426 -389v-539z" />
<glyph unicode="Y" horiz-adv-x="1548" d="M104 0h404v362l1255 1154h-575l-680 -621v653l-404 -364v-649v-535z" />
<glyph unicode="Z" horiz-adv-x="1607" d="M84 0h1329v362h-891l1284 1154h-1282l-403 -365h682l-719 -649v-502z" />
<glyph unicode="[" horiz-adv-x="776" d="M106 -164v1815h533v-328h-190v-1159h190v-328h-533z" />
<glyph unicode="\" horiz-adv-x="806" d="M63 1651l355 -1815h344l-354 1815h-345z" />
<glyph unicode="]" horiz-adv-x="753" d="M106 164v-328h533v1815h-533v-328h191v-1159h-191z" />
<glyph unicode="^" horiz-adv-x="1030" d="M100 905l303 606h209l303 -606h-262l-141 367l-147 -367h-265z" />
<glyph unicode="_" horiz-adv-x="1179" d="M0 -68h1180v-215h-1180v215z" />
<glyph unicode="`" horiz-adv-x="706" d="M106 1933l181 -315h295l-121 315h-355z" />
<glyph unicode="a" horiz-adv-x="1683" d="M23 -35l1122 1012v-402h-318l-405 -370h723v-205h403v1516h-403l-1122 -1016v-535z" />
<glyph unicode="b" horiz-adv-x="1558" d="M104 0h404v1151h442q47 0 74 -28.5t27 -75.5q0 -45 -27 -76t-74 -31h-352v-365h352q47 0 74 -28.5t27 -75.5q0 -45 -27 -75.5t-74 -30.5h-352v-365h428q180 0 304 130t124 341q0 98 -50 179t-126 104q80 43 128 117.5t48 175.5q0 209 -122 339t-306 130h-518l-404 -365 v-1151z" />
<glyph unicode="c" horiz-adv-x="1327" d="M115 758q0 319 245.5 538.5t606.5 219.5h516l-404 -365h-84q-203 0 -340 -112.5t-137 -280.5q0 -166 138.5 -279.5t338.5 -113.5h84v-365h-112q-362 0 -607 218t-245 540z" />
<glyph unicode="d" horiz-adv-x="1411" d="M92 0h404v1151q162 0 281.5 -118t119.5 -277q0 -143 -117 -273q-108 -118 -193 -118h-1v-365q272 0 493 227.5t221 528.5q0 303 -228 531.5t-531 228.5h-45l-404 -365v-1151z" />
<glyph unicode="e" horiz-adv-x="1402" d="M113 0v940v211l403 365h1040l-403 -365h-637v-211h637v-365h-637v-210h637v-365h-1040z" />
<glyph unicode="f" horiz-adv-x="1398" d="M109 0v940v211l403 365h1040l-403 -365h-637v-211h637v-365h-637v-575h-403z" />
<glyph unicode="g" horiz-adv-x="1521" d="M82 756q0 303 228.5 531.5t531.5 228.5h852l-404 -365h-403q-162 0 -282 -118t-120 -277q0 -156 122 -273.5t280 -117.5v575h403v-940h-448q-303 0 -531.5 226.5t-228.5 529.5z" />
<glyph unicode="h" horiz-adv-x="1529" d="M109 0h403v575h512v-575h403v1516h-403v-576h-512v612l-403 -364v-1188z" />
<glyph unicode="i" d="M139 0h404v1552l-404 -364v-1188z" />
<glyph unicode="j" d="M-68 -211v-364h183q180 0 304 130t124 341v1656l-404 -364v-1292q0 -47 -27.5 -77t-74.5 -30h-105z" />
<glyph unicode="k" horiz-adv-x="1546" d="M104 0h404v362l182 166l629 -563v524l-334 306l756 721h-553l-680 -621v653l-404 -364v-649v-535z" />
<glyph unicode="l" horiz-adv-x="1040" d="M111 0v365v786l403 365v-1151h465v-365h-868z" />
<glyph unicode="m" horiz-adv-x="1966" d="M68 -31l671 606v-608l682 608v-575h424v1554l-616 -540v538l-1161 -1048v-535z" />
<glyph unicode="n" horiz-adv-x="1687" d="M115 0v1204l346 312l698 -635v635h404v-981v-562l-1045 940v-913h-403z" />
<glyph unicode="o" horiz-adv-x="1644" d="M90 758q0 -362 211 -576q200 -202 513 -202h3q317 0 518 202q213 215 213 576q0 365 -209 575q-200 203 -522 203q-315 0 -516 -203q-211 -213 -211 -575zM565 1049q83 122 249 122h3q166 0 252 -124q76 -111 76 -289q0 -184 -74 -291q-84 -123 -254 -123 q-166 0 -250 123q-73 108 -73 286q0 189 71 296z" />
<glyph unicode="p" horiz-adv-x="1353" d="M109 0h403v1151h180q84 0 147.5 -59.5t63.5 -151.5q0 -94 -62.5 -152.5t-148.5 -58.5h-86v-364h86q211 0 379 141q197 166 197 434q0 266 -195 432q-168 143 -379 144h-182l-403 -365v-1151z" />
<glyph unicode="q" horiz-adv-x="1644" d="M90 758q0 -362 211 -576q200 -202 513 -202h3h328l403 364h-731q-166 0 -250 123q-73 108 -73 286q0 189 71 296q83 122 249 122h3q166 0 252 -124q76 -111 76 -289q0 -109 -25.5 -193t-85.5 -141h408q55 59 80.5 146t25.5 188q0 365 -209 575q-201 203 -522 203 q-322 0 -520 -203q-207 -211 -207 -575z" />
<glyph unicode="r" horiz-adv-x="1404" d="M102 0h404v1151h180q125 0 172 -57q39 -47 39 -154q0 -92 -62.5 -150.5t-148.5 -58.5h-158l797 -756v533l-207 180q90 78 119 115q63 82 63 184q0 283 -155 410q-145 119 -457 119h-182l-404 -365v-1151z" />
<glyph unicode="s" horiz-adv-x="1271" d="M61 0v365h527q39 0 68.5 29.5t29.5 70.5q0 110 -148 110h-3q-201 0 -333 142.5t-132 326.5t145 328t324 144h911l-403 -365h-469q-39 0 -71 -29.5t-32 -70.5q0 -111 156 -111q184 0 317 -127q143 -135 144 -342q0 -205 -146 -342q-137 -129 -323 -129h-562z" />
<glyph unicode="t" horiz-adv-x="1124" d="M2 1151h424v-1151h403v1151h84l404 365h-911z" />
<glyph unicode="u" horiz-adv-x="1337" d="M111 551q0 -328 182 -469q137 -106 381 -107q242 0 379 105q184 141 184 471v965h-403v-965q0 -115 -42 -163t-118 -48q-74 0 -113 43q-47 53 -47 168v999l-403 -364v-635z" />
<glyph unicode="v" horiz-adv-x="1558" d="M100 -23l1737 1555h-670l-643 -576v576l-424 -365v-1190z" />
<glyph unicode="w" horiz-adv-x="2191" d="M111 -23l616 541v-538l1720 1552h-589l-641 -576v609l-682 -609v576l-424 -365v-1190z" />
<glyph unicode="x" horiz-adv-x="1656" d="M59 -45l732 659l727 -651v524l-433 394l709 635h-602l-406 -365l-434 399l-284 -256l417 -411l-426 -389v-539z" />
<glyph unicode="y" horiz-adv-x="1548" d="M104 0h404v362l1255 1154h-575l-680 -621v653l-404 -364v-649v-535z" />
<glyph unicode="z" horiz-adv-x="1607" d="M84 0h1329v362h-891l1284 1154h-1282l-403 -365h682l-719 -649v-502z" />
<glyph unicode="{" horiz-adv-x="888" d="M96 590v307q66 12 94.5 58t28.5 118v252q0 160 70.5 243t228.5 83h205v-328h-50.5t-64.5 -10t-50 -36t-13 -69l-2 -180q0 -106 -25 -166q-30 -76 -112 -119q66 -35 96 -88q23 -41 32 -91t9 -105l2 -180q0 -45 12 -70t42 -33t62.5 -10t61.5 -2v-328h-205q-160 0 -229.5 81 t-69.5 245v252q0 72 -28.5 118t-94.5 58z" />
<glyph unicode="|" horiz-adv-x="749" d="M170 -381v1890h365v-1890h-365z" />
<glyph unicode="}" horiz-adv-x="888" d="M96 164v-328h205q160 0 229.5 81t69.5 245v252q0 72 28.5 118t94.5 58v307q-66 12 -94.5 58t-28.5 118v252q0 160 -68 240q-74 86 -231 86h-205v-328h49t66 -10t50 -36t13 -69l2 -180q0 -106 28 -174t110 -111q-66 -35 -97 -88q-23 -41 -32 -91t-9 -105l-2 -180 q0 -45 -12 -70t-42 -33t-62.5 -10t-61.5 -2z" />
<glyph unicode="~" horiz-adv-x="1245" d="M98 748q57 143 125 217q92 100 221 100q53 0 127 -27q23 -8 125 -51q51 -20 94.5 -35.5t86.5 -15.5q47 0 88 45q25 29 55 88l176 -145q-59 -143 -125 -215q-92 -98 -221 -99q-84 0 -164 35l-96 43q-39 14 -76 31q-47 16 -82 16q-53 0 -96 -45q-29 -29 -62 -92z" />
<glyph unicode="&#xa1;" horiz-adv-x="1581" d="M84 -35l1733 1551h-603l-405 -365l-434 399l-285 -256l418 -411l-424 -389v-529zM580 1516h487l-244 -216z" />
<glyph unicode="&#xa2;" horiz-adv-x="1581" d="M84 -35l1733 1551h-603l-405 -365l-434 399l-285 -256l418 -411l-424 -389v-529zM580 1516h487l-244 -216z" />
<glyph unicode="&#xa3;" horiz-adv-x="1159" d="M106 0l99 1049q25 262 147.5 361t388.5 99l166 2h406l-404 -364h-125q-113 0 -147 -55q-27 -43 -27 -164h305v-363h-340l-14 -205h582v-360h-1037z" />
<glyph unicode="&#xa4;" horiz-adv-x="1339" d="M102 463l138 139q-10 29 -15 47q-14 57 -14 105q0 51 14 106q4 18 15 45l-138 139l269 269l139 -137q27 10 45 14q61 16 107 16q53 0 106 -14q18 -4 45 -16l139 137l269 -269l-136 -139q10 -29 15 -47q14 -57 14 -104q0 -43 -14 -103q-4 -18 -15 -49l136 -139l-269 -268 l-139 137q-78 -31 -151 -31q-37 0 -75 8t-77 23l-139 -137zM492 754q0 -70 50 -120t120 -50t119.5 50t49.5 120t-50 120t-119 50q-70 0 -120 -50t-50 -120z" />
<glyph unicode="&#xa5;" horiz-adv-x="1392" d="M88 1509h414l203 -581l204 581h414l-260 -581h186v-363h-338v-567h-417v567h-340v363h190z" />
<glyph unicode="&#xa6;" horiz-adv-x="641" d="M104 344h365v-725h-365v725zM104 707v802h365v-802h-365z" />
<glyph unicode="&#xa7;" horiz-adv-x="1130" d="M100 737q0 145 123 254q-31 53 -45 88q-27 68 -26 140q0 203 149 325q129 106 289 107l635 2l-404 -365h-182q-25 0 -45.5 -22.5t-20.5 -51.5q0 -57 138 -102q96 -33 129 -51q102 -47 165.5 -123t63.5 -166q0 -172 -123 -276q72 -109 72 -228q0 -201 -139 -319 q-131 -113 -336 -113h-371v363h328q14 0 35.5 1t41 24.5t19.5 49.5q0 31 -31 54q-16 12 -106 45q-176 66 -246 121q-113 90 -113 243zM500 768q0 -29 19.5 -50.5t49.5 -21.5q29 0 49.5 20.5t20.5 51.5q0 29 -20.5 49.5t-49.5 20.5t-49 -20.5t-20 -49.5z" />
<glyph unicode="&#xa8;" horiz-adv-x="1398" d="M111 0v1151l403 365h1040l-403 -365h-637v-211h637v-365h-637v-210h637v-365h-1040zM231 1628v354h359v-354h-359zM799 1628v354h352v-354h-352z" />
<glyph unicode="&#xa9;" horiz-adv-x="1748" d="M76 756q0 326 231 557t559 231q324 0 555.5 -231.5t231.5 -556.5q0 -326 -230.5 -558.5t-556.5 -232.5q-328 0 -559 231.5t-231 559.5zM233 756q0 -264 185.5 -453.5t447.5 -189.5t445.5 189.5t183.5 453.5q0 262 -183.5 451.5t-445.5 189.5q-264 0 -448.5 -188.5 t-184.5 -452.5zM426 752q0 199 147 317q135 109 340 109h342l-235 -213h-88q-100 0 -170 -56.5t-70 -154.5t78 -156q72 -51 174 -51h86v-215h-127q-193 0 -330 110q-147 119 -147 310z" />
<glyph unicode="&#xaa;" horiz-adv-x="1265" d="M70 756q0 328 197.5 544t506.5 216l404 -365h-224q-193 0 -318.5 -59.5t-162.5 -147.5h705v-364h-705q39 -82 158 -144q139 -72 323 -71h224v-365h-252q-365 0 -610.5 219t-245.5 537z" />
<glyph unicode="&#xab;" horiz-adv-x="1443" d="M104 715l297 469h428l-297 -469l297 -459h-428zM618 715l295 469h433l-297 -469l297 -459h-433z" />
<glyph unicode="&#xac;" horiz-adv-x="1122" d="M68 346v318h981v-664h-353v346h-628z" />
<glyph unicode="&#xad;" horiz-adv-x="892" d="M0 500v354h893v-354h-893z" />
<glyph unicode="&#xae;" horiz-adv-x="1748" d="M70 756q0 326 231 557t559 231q324 0 555.5 -231.5t231.5 -556.5q0 -326 -230.5 -558.5t-556.5 -232.5q-328 0 -559 231.5t-231 559.5zM227 756q0 -264 185.5 -453.5t447.5 -189.5t445.5 189.5t183.5 453.5q0 262 -183.5 451.5t-445.5 189.5q-264 0 -448.5 -188.5 t-184.5 -452.5zM516 330h225v641h101q72 0 94 -28t22 -89q0 -53 -33.5 -85t-82.5 -32h-88l444 -422v297l-117 101q55 47 68 63q35 45 35 105q0 158 -85 226.5t-257 68.5h-101l-225 -205v-641z" />
<glyph unicode="&#xaf;" horiz-adv-x="1003" d="M31 1151h403v365h-403v-365zM305 0h404v940h-404v-940zM575 1151h404v365h-404v-365z" />
<glyph unicode="&#xb0;" horiz-adv-x="874" d="M74 1165q0 141 103.5 244.5t244.5 103.5t243.5 -102t102.5 -246q0 -141 -102.5 -243.5t-243.5 -102.5q-139 0 -243.5 102.5t-104.5 243.5zM281 1165q0 -55 42 -97t99 -42q55 0 97 42t42 97q0 57 -42 99.5t-97 42.5q-57 0 -99 -42.5t-42 -99.5z" />
<glyph unicode="&#xb1;" horiz-adv-x="1392" d="M152 0v360h1017v-360h-1017zM152 772v358h313v330h391v-330h313v-358h-313v-330h-391v330h-313z" />
<glyph unicode="&#xb2;" d="M139 0h404v1552l-404 -364v-1188z" />
<glyph unicode="&#xb3;" d="M139 0h404v1552l-404 -364v-1188z" />
<glyph unicode="&#xb4;" horiz-adv-x="735" d="M123 1618l121 315h354l-180 -315h-295z" />
<glyph unicode="&#xb5;" horiz-adv-x="1427" d="M119 -389v1519h416v-579q0 -113 31.5 -152t142.5 -39h184v551l416 361v-1272h-705q-45 0 -69 12v-401h-416z" />
<glyph unicode="&#xb6;" horiz-adv-x="1357" d="M84 1237q0 223 172 328q141 86 379 86h868l-237 -285h-78v-1530h-240v1530h-162v-1530h-241v1000h-25q-188 0 -312 108.5t-124 292.5z" />
<glyph unicode="&#xb7;" horiz-adv-x="544" d="M90 590v354h354v-354h-354z" />
<glyph unicode="&#xb8;" horiz-adv-x="1398" d="M111 0v1151l403 365h1040l-403 -365h-637v-211h637v-365h-637v-210h637v-365h-1040zM231 1628v354h359v-354h-359zM799 1628v354h352v-354h-352z" />
<glyph unicode="&#xb9;" horiz-adv-x="2584" d="M106 2v1204l347 312l698 -635v635h403v-1543l-1044 940v-913h-404zM1767 633v149h721v-149h-721zM1798 1204q0 139 94.5 227.5t235.5 88.5q137 0 233.5 -86.5t96.5 -223.5q0 -139 -92.5 -229t-233.5 -90q-137 0 -235.5 88t-98.5 225zM1987 1206q0 -70 36.5 -119 t106.5 -49q66 0 102.5 48t36.5 120t-37 120t-104 48q-68 0 -104.5 -49t-36.5 -119z" />
<glyph unicode="&#xba;" horiz-adv-x="1265" d="M70 756q0 328 197.5 544t506.5 216l404 -365h-224q-193 0 -318.5 -59.5t-162.5 -147.5h705v-364h-705q39 -82 158 -144q139 -72 323 -71h224v-365h-252q-365 0 -610.5 219t-245.5 537z" />
<glyph unicode="&#xbb;" horiz-adv-x="1452" d="M104 715l297 469h428l-297 -469l297 -459h-428zM618 715l295 469h433l-297 -469l297 -459h-433z" />
<glyph unicode="&#xbc;" horiz-adv-x="1216" d="M90 575v357h1018v-357h-1018zM383 283q0 90 62.5 152.5t152.5 62.5t152.5 -62.5t62.5 -152.5t-62.5 -152.5t-152.5 -62.5t-152.5 62.5t-62.5 152.5zM383 1225q0 90 62.5 152.5t152.5 62.5t152.5 -62.5t62.5 -152.5t-62.5 -152.5t-152.5 -62.5t-152.5 62.5t-62.5 152.5z " />
<glyph unicode="&#xbd;" horiz-adv-x="1230" d="M86 549l242 223l-215 229l260 244l215 -229l241 227l269 -289l-242 -223l213 -229l-260 -244l-215 229l-240 -225z" />
<glyph unicode="&#xbe;" horiz-adv-x="1642" d="M43 184q0 90 62.5 152.5t152.5 62.5t152.5 -62.5t62.5 -152.5t-62.5 -152.5t-152.5 -62.5t-152.5 62.5t-62.5 152.5zM602 184q0 90 62.5 152.5t152.5 62.5t152.5 -62.5t62.5 -152.5t-62.5 -152.5t-152.5 -62.5t-152.5 62.5t-62.5 152.5zM1161 184q0 90 62.5 152.5 t152.5 62.5t152.5 -62.5t62.5 -152.5t-62.5 -152.5t-152.5 -62.5t-152.5 62.5t-62.5 152.5z" />
<glyph unicode="&#xbf;" horiz-adv-x="1003" d="M31 1151h403v365h-403v-365zM305 0h404v940h-404v-940zM575 1151h404v365h-404v-365z" />
<glyph unicode="&#xc0;" horiz-adv-x="1697" d="M23 -35l1122 1012v-402h-318l-405 -370h723v-205h403v1516h-403l-1122 -1016v-535z" />
<glyph unicode="&#xc1;" horiz-adv-x="1599" d="M121 0v1151l403 365h1217l-404 -365h-813v-786h441q47 0 73.5 28.5t26.5 77.5q0 47 -26.5 75.5t-73.5 28.5h-353v365h432q180 0 302 -128t122 -337q0 -188 -124.5 -331.5t-296.5 -143.5h-926z" />
<glyph unicode="&#xc2;" horiz-adv-x="1558" d="M104 0h404v1151h442q47 0 74 -28.5t27 -75.5q0 -45 -27 -76t-74 -31h-352v-365h352q47 0 74 -28.5t27 -75.5q0 -45 -27 -75.5t-74 -30.5h-352v-365h428q180 0 304 130t124 341q0 98 -50 179t-126 104q80 43 128 117.5t48 175.5q0 209 -122 339t-306 130h-518l-404 -365 v-1151z" />
<glyph unicode="&#xc3;" horiz-adv-x="1191" d="M109 0h403v1151h465l401 365h-866l-403 -365v-1151z" />
<glyph unicode="&#xc4;" horiz-adv-x="1826" d="M29 0h1265h404v1516h-404l-1175 -1063h590l585 524v-612h-1265v-365z" />
<glyph unicode="&#xc5;" horiz-adv-x="1406" d="M117 0v940v211l403 365h1041l-404 -365h-637v-211h637v-365h-637v-210h637v-365h-1040z" />
<glyph unicode="&#xc6;" horiz-adv-x="2439" d="M-57 1249l282 254l707 -643v619h403v-621l680 621h553l-756 -721l334 -305v-525l-628 564l-183 -166v-363h-403v365l-182 166l-629 -564v525l334 305z" />
<glyph unicode="&#xc7;" horiz-adv-x="1249" d="M117 0h614q180 0 304 130t124 341q0 98 -50 179t-126 104q80 43 128 117.5t48 175.5q0 209 -122 339t-306 130h-211l-403 -365h536q47 0 74 -28.5t27 -75.5q0 -45 -27 -76t-74 -31h-536v-365h536q47 0 74 -28.5t27 -75.5q0 -45 -27 -75.5t-74 -30.5h-536v-365z" />
<glyph unicode="&#xc8;" horiz-adv-x="1677" d="M115 -27l1044 940v-913h404v1516h-346l-699 -635v665l-403 -364v-647v-562z" />
<glyph unicode="&#xc9;" horiz-adv-x="1673" d="M111 -27l1044 940v-913h404v1516h-347l-698 -635v665l-403 -364v-647v-562zM604 1112v404h447z" />
<glyph unicode="&#xca;" horiz-adv-x="1556" d="M115 0h403v362l182 166l629 -563v524l-334 306l756 721h-553l-680 -621v653l-403 -364v-649v-535z" />
<glyph unicode="&#xcb;" horiz-adv-x="1689" d="M43 -33l1120 1010v-977h404v1516h-404l-1120 -1014v-535z" />
<glyph unicode="&#xcc;" horiz-adv-x="1939" d="M45 -31l672 606v-608l682 608v-575h424v1554l-617 -540v538l-1161 -1048v-535z" />
<glyph unicode="&#xcd;" horiz-adv-x="1538" d="M113 0h403v575h512v-575h404v1516h-404v-576h-512v612l-403 -364v-1188z" />
<glyph unicode="&#xce;" horiz-adv-x="1656" d="M94 758q0 -362 211 -576q201 -203 516 -202q317 0 518 202q213 215 213 576q0 365 -209 575q-200 203 -522 203q-315 0 -516 -203q-211 -213 -211 -575zM498 758q0 184 71 291q84 123 252 122q166 0 252 -124q76 -111 76 -289q0 -184 -74 -291q-84 -123 -254 -123 q-166 0 -250 123q-74 109 -73 291z" />
<glyph unicode="&#xcf;" horiz-adv-x="1515" d="M104 0h404v1151h514v-1151h403v1516h-917l-404 -365v-1151z" />
<glyph unicode="&#xd0;" horiz-adv-x="1341" d="M109 0h403v1151h180q84 0 147.5 -59.5t63.5 -151.5q0 -94 -62.5 -152.5t-148.5 -58.5h-86v-364h86q211 0 379 141q197 166 197 434q0 266 -195 432q-168 143 -379 144h-182l-403 -365v-1151z" />
<glyph unicode="&#xd1;" horiz-adv-x="1292" d="M80 758q0 319 245.5 538.5t606.5 219.5h516l-404 -365h-83q-203 0 -340.5 -112.5t-137.5 -280.5q0 -166 138.5 -279.5t339.5 -113.5h83v-365h-112q-362 0 -607 218t-245 540z" />
<glyph unicode="&#xd2;" horiz-adv-x="1124" d="M2 1151h424v-1151h403v1151h84l404 365h-911z" />
<glyph unicode="&#xd3;" horiz-adv-x="1581" d="M84 -35l1733 1551h-603l-405 -365l-434 399l-285 -256l418 -411l-424 -389v-529z" />
<glyph unicode="&#xd4;" horiz-adv-x="2207" d="M106 760q0 -303 228.5 -531.5t531.5 -228.5h449v365v786q162 0 281.5 -118t119.5 -277q0 -154 -87 -261.5t-226 -129.5v-365q299 0 508 223t209 533q0 303 -228.5 531.5t-531.5 228.5h-449v-1151q-160 0 -280.5 118.5t-120.5 276.5q0 154 87 261t226 130v365 q-299 0 -508 -223.5t-209 -532.5z" />
<glyph unicode="&#xd5;" horiz-adv-x="1656" d="M59 -45l732 659l727 -651v524l-433 394l709 635h-602l-406 -365l-434 399l-284 -256l417 -411l-426 -389v-539z" />
<glyph unicode="&#xd6;" horiz-adv-x="1630" d="M117 0h1485v365h-168v1151h-404v-1151h-510v1151l-403 -365v-1151z" />
<glyph unicode="&#xd7;" horiz-adv-x="1417" d="M94 1034q0 -297 107 -428q121 -147 411 -147h287v-459h404v1516h-404v-693h-190q-127 0 -169 42t-42 169v512l-404 -364v-148z" />
<glyph unicode="&#xd8;" horiz-adv-x="1957" d="M117 0h1734v1516h-403v-1151h-262v1151h-404v-1151h-262v1181l-403 -364v-1182z" />
<glyph unicode="&#xd9;" horiz-adv-x="2084" d="M119 0h1945v365h-211v1151h-403v-1151h-262v1151h-404v-1151h-262v1183l-403 -364v-1184z" />
<glyph unicode="&#xda;" horiz-adv-x="1671" d="M-45 1151l403 365h404v-1151h180q84 0 147.5 59t63.5 151q0 94 -62.5 152.5t-148.5 58.5h-86v365h125q211 0 379 -141q197 -166 196 -435q0 -266 -194 -432q-168 -143 -379 -143h-625v1151h-403z" />
<glyph unicode="&#xdb;" horiz-adv-x="2011" d="M127 0v1151l403 365v-1151h181q84 0 147.5 59t63.5 151q0 94 -62.5 152.5t-148.5 58.5h-86v365h125q211 0 378 -141q197 -166 197 -435q0 -266 -195 -432q-168 -143 -378 -143h-625zM1503 0h404v1516h-404v-1516z" />
<glyph unicode="&#xdc;" horiz-adv-x="1380" d="M94 0v1151l404 365v-1151h180q84 0 147.5 59t63.5 151q0 94 -62.5 152.5t-148.5 58.5h-86v365h125q211 0 379 -141q197 -166 196 -435q0 -266 -194 -432q-168 -143 -379 -143h-625z" />
<glyph unicode="&#xdd;" horiz-adv-x="1265" d="M68 0h251q365 0 608.5 219t243.5 537q0 328 -195.5 544t-504.5 216l-403 -365h223q193 0 318.5 -59.5t162.5 -147.5h-704v-364h704q-39 -82 -158 -144q-139 -72 -323 -71h-223v-365z" />
<glyph unicode="&#xde;" horiz-adv-x="2263" d="M117 0h403v575h185q41 -260 223 -421q195 -174 487 -174q317 0 518 202q213 215 213 576q0 362 -211 575q-201 203 -520 203q-287 0 -483 -174q-186 -166 -227 -422h-185v596l-403 -365v-1171zM1092 758q0 184 71 291q84 123 252 122q166 0 252 -124q76 -111 76 -289 q0 -184 -74 -291q-84 -123 -254 -123q-166 0 -250 123q-74 109 -73 291z" />
<glyph unicode="&#xdf;" horiz-adv-x="1386" d="M63 -25v533l207 180q-78 68 -118 127q-63 92 -64 195q0 246 156.5 376t455.5 130h586v-1516h-403v1151h-181q-125 0 -172 -57q-39 -47 -38 -154q0 -92 62 -150.5t148 -58.5h158z" />
<glyph unicode="&#xe0;" horiz-adv-x="1697" d="M23 -35l1122 1012v-402h-318l-405 -370h723v-205h403v1516h-403l-1122 -1016v-535z" />
<glyph unicode="&#xe1;" horiz-adv-x="1599" d="M121 0v1151l403 365h1217l-404 -365h-813v-786h441q47 0 73.5 28.5t26.5 77.5q0 47 -26.5 75.5t-73.5 28.5h-353v365h432q180 0 302 -128t122 -337q0 -188 -124.5 -331.5t-296.5 -143.5h-926z" />
<glyph unicode="&#xe2;" horiz-adv-x="1558" d="M104 0h404v1151h442q47 0 74 -28.5t27 -75.5q0 -45 -27 -76t-74 -31h-352v-365h352q47 0 74 -28.5t27 -75.5q0 -45 -27 -75.5t-74 -30.5h-352v-365h428q180 0 304 130t124 341q0 98 -50 179t-126 104q80 43 128 117.5t48 175.5q0 209 -122 339t-306 130h-518l-404 -365 v-1151z" />
<glyph unicode="&#xe3;" horiz-adv-x="1191" d="M109 0h403v1151h465l401 365h-866l-403 -365v-1151z" />
<glyph unicode="&#xe4;" horiz-adv-x="1826" d="M29 0h1265h404v1516h-404l-1175 -1063h590l585 524v-612h-1265v-365z" />
<glyph unicode="&#xe5;" horiz-adv-x="1406" d="M117 0v940v211l403 365h1041l-404 -365h-637v-211h637v-365h-637v-210h637v-365h-1040z" />
<glyph unicode="&#xe6;" horiz-adv-x="2340" d="M-156 1249l283 254l707 -643v619h403v-621l680 621h553l-756 -721l334 -305v-525l-629 564l-182 -166v-363h-403v365l-183 166l-628 -564v525l333 305z" />
<glyph unicode="&#xe7;" horiz-adv-x="1249" d="M117 0h614q180 0 304 130t124 341q0 98 -50 179t-126 104q80 43 128 117.5t48 175.5q0 209 -122 339t-306 130h-211l-403 -365h536q47 0 74 -28.5t27 -75.5q0 -45 -27 -76t-74 -31h-536v-365h536q47 0 74 -28.5t27 -75.5q0 -45 -27 -75.5t-74 -30.5h-536v-365z" />
<glyph unicode="&#xe8;" horiz-adv-x="1677" d="M115 -27l1044 940v-913h404v1516h-346l-699 -635v665l-403 -364v-647v-562z" />
<glyph unicode="&#xe9;" horiz-adv-x="1673" d="M111 -27l1044 940v-913h404v1516h-347l-698 -635v665l-403 -364v-647v-562zM604 1112v404h447z" />
<glyph unicode="&#xea;" horiz-adv-x="1556" d="M115 0h403v362l182 166l629 -563v524l-334 306l756 721h-553l-680 -621v653l-403 -364v-649v-535z" />
<glyph unicode="&#xeb;" horiz-adv-x="1689" d="M43 -33l1120 1010v-977h404v1516h-404l-1120 -1014v-535z" />
<glyph unicode="&#xec;" horiz-adv-x="1939" d="M45 -31l672 606v-608l682 608v-575h424v1554l-617 -540v538l-1161 -1048v-535z" />
<glyph unicode="&#xed;" horiz-adv-x="1538" d="M113 0h403v575h512v-575h404v1516h-404v-576h-512v612l-403 -364v-1188z" />
<glyph unicode="&#xee;" horiz-adv-x="1656" d="M94 758q0 -362 211 -576q201 -203 516 -202q317 0 518 202q213 215 213 576q0 365 -209 575q-200 203 -522 203q-315 0 -516 -203q-211 -213 -211 -575zM498 758q0 184 71 291q84 123 252 122q166 0 252 -124q76 -111 76 -289q0 -184 -74 -291q-84 -123 -254 -123 q-166 0 -250 123q-74 109 -73 291z" />
<glyph unicode="&#xef;" horiz-adv-x="1515" d="M104 0h404v1151h514v-1151h403v1516h-917l-404 -365v-1151z" />
<glyph unicode="&#xf0;" horiz-adv-x="1341" d="M109 0h403v1151h180q84 0 147.5 -59.5t63.5 -151.5q0 -94 -62.5 -152.5t-148.5 -58.5h-86v-364h86q211 0 379 141q197 166 197 434q0 266 -195 432q-168 143 -379 144h-182l-403 -365v-1151z" />
<glyph unicode="&#xf1;" horiz-adv-x="1292" d="M80 758q0 319 245.5 538.5t606.5 219.5h516l-404 -365h-83q-203 0 -340.5 -112.5t-137.5 -280.5q0 -166 138.5 -279.5t339.5 -113.5h83v-365h-112q-362 0 -607 218t-245 540z" />
<glyph unicode="&#xf2;" horiz-adv-x="1124" d="M2 1151h424v-1151h403v1151h84l404 365h-911z" />
<glyph unicode="&#xf3;" horiz-adv-x="1581" d="M84 -35l1733 1551h-603l-405 -365l-434 399l-285 -256l418 -411l-424 -389v-529z" />
<glyph unicode="&#xf4;" horiz-adv-x="2207" d="M106 760q0 -303 228.5 -531.5t531.5 -228.5h449v365v786q162 0 281.5 -118t119.5 -277q0 -154 -87 -261.5t-226 -129.5v-365q299 0 508 223t209 533q0 303 -228.5 531.5t-531.5 228.5h-449v-1151q-160 0 -280.5 118.5t-120.5 276.5q0 154 87 261t226 130v365 q-299 0 -508 -223.5t-209 -532.5z" />
<glyph unicode="&#xf5;" horiz-adv-x="1656" d="M59 -45l732 659l727 -651v524l-433 394l709 635h-602l-406 -365l-434 399l-284 -256l417 -411l-426 -389v-539z" />
<glyph unicode="&#xf6;" horiz-adv-x="1630" d="M117 0h1485v365h-168v1151h-404v-1151h-510v1151l-403 -365v-1151z" />
<glyph unicode="&#xf7;" horiz-adv-x="1417" d="M94 1034q0 -297 107 -428q121 -147 411 -147h287v-459h404v1516h-404v-693h-190q-127 0 -169 42t-42 169v512l-404 -364v-148z" />
<glyph unicode="&#xf8;" horiz-adv-x="1957" d="M117 0h1734v1516h-403v-1151h-262v1151h-404v-1151h-262v1181l-403 -364v-1182z" />
<glyph unicode="&#xf9;" horiz-adv-x="2084" d="M119 0h1945v365h-211v1151h-403v-1151h-262v1151h-404v-1151h-262v1183l-403 -364v-1184z" />
<glyph unicode="&#xfa;" horiz-adv-x="1671" d="M-45 1151l403 365h404v-1151h180q84 0 147.5 59t63.5 151q0 94 -62.5 152.5t-148.5 58.5h-86v365h125q211 0 379 -141q197 -166 196 -435q0 -266 -194 -432q-168 -143 -379 -143h-625v1151h-403z" />
<glyph unicode="&#xfb;" horiz-adv-x="2011" d="M127 0v1151l403 365v-1151h181q84 0 147.5 59t63.5 151q0 94 -62.5 152.5t-148.5 58.5h-86v365h125q211 0 378 -141q197 -166 197 -435q0 -266 -195 -432q-168 -143 -378 -143h-625zM1503 0h404v1516h-404v-1516z" />
<glyph unicode="&#xfc;" horiz-adv-x="1380" d="M94 0v1151l404 365v-1151h180q84 0 147.5 59t63.5 151q0 94 -62.5 152.5t-148.5 58.5h-86v365h125q211 0 379 -141q197 -166 196 -435q0 -266 -194 -432q-168 -143 -379 -143h-625z" />
<glyph unicode="&#xfd;" horiz-adv-x="1265" d="M68 0h251q365 0 608.5 219t243.5 537q0 328 -195.5 544t-504.5 216l-403 -365h223q193 0 318.5 -59.5t162.5 -147.5h-704v-364h704q-39 -82 -158 -144q-139 -72 -323 -71h-223v-365z" />
<glyph unicode="&#xfe;" horiz-adv-x="2263" d="M117 0h403v575h185q41 -260 223 -421q195 -174 487 -174q317 0 518 202q213 215 213 576q0 362 -211 575q-201 203 -520 203q-287 0 -483 -174q-186 -166 -227 -422h-185v596l-403 -365v-1171zM1092 758q0 184 71 291q84 123 252 122q166 0 252 -124q76 -111 76 -289 q0 -184 -74 -291q-84 -123 -254 -123q-166 0 -250 123q-74 109 -73 291z" />
<glyph unicode="&#xff;" horiz-adv-x="1386" d="M63 -25v533l207 180q-78 68 -118 127q-63 92 -64 195q0 246 156.5 376t455.5 130h586v-1516h-403v1151h-181q-125 0 -172 -57q-39 -47 -38 -154q0 -92 62 -150.5t148 -58.5h158z" />
<glyph unicode="&#x2dc;" horiz-adv-x="778" d="M109 1620v246q35 27 75.5 42t81.5 15t70 -8t86 -31q29 -8 61.5 -17t57.5 -9q37 0 64.5 15t56.5 46v-252q-66 -47 -144 -47q-37 0 -62.5 5t-66.5 20l-67 22q-16 8 -39 12t-45 4q-39 0 -70 -15t-59 -48z" />
<glyph unicode="&#x2000;" horiz-adv-x="991" />
<glyph unicode="&#x2001;" horiz-adv-x="1982" />
<glyph unicode="&#x2002;" horiz-adv-x="991" />
<glyph unicode="&#x2003;" horiz-adv-x="1982" />
<glyph unicode="&#x2004;" horiz-adv-x="660" />
<glyph unicode="&#x2005;" horiz-adv-x="495" />
<glyph unicode="&#x2006;" horiz-adv-x="330" />
<glyph unicode="&#x2007;" horiz-adv-x="330" />
<glyph unicode="&#x2008;" horiz-adv-x="247" />
<glyph unicode="&#x2009;" horiz-adv-x="396" />
<glyph unicode="&#x200a;" horiz-adv-x="110" />
<glyph unicode="&#x2010;" horiz-adv-x="1216" d="M90 575v357h1018v-357h-1018z" />
<glyph unicode="&#x2011;" horiz-adv-x="1216" d="M90 575v357h1018v-357h-1018z" />
<glyph unicode="&#x2012;" horiz-adv-x="1216" d="M90 575v357h1018v-357h-1018z" />
<glyph unicode="&#x2013;" horiz-adv-x="1404" d="M102 500v354h1194v-354h-1194z" />
<glyph unicode="&#x2014;" horiz-adv-x="1908" d="M100 500v354h1706v-354h-1706z" />
<glyph unicode="&#x2018;" horiz-adv-x="589" d="M96 1198q0 63 37 123q14 23 31 37l229 207v-168q133 -57 133 -199q0 -90 -62.5 -152.5t-152.5 -62.5t-152.5 62.5t-62.5 152.5z" />
<glyph unicode="&#x2019;" horiz-adv-x="589" d="M94 1182q0 90 62.5 152.5t152.5 62.5t152.5 -62.5t62.5 -152.5q0 -63 -37 -123q-14 -23 -30 -37l-230 -207v168q-133 57 -133 199z" />
<glyph unicode="&#x201a;" horiz-adv-x="526" d="M45 199q0 90 62.5 152.5t152.5 62.5t152.5 -62.5t62.5 -152.5q0 -63 -37 -123q-14 -23 -30 -37l-230 -207v168q-133 57 -133 199z" />
<glyph unicode="&#x201c;" horiz-adv-x="1120" d="M74 1198q0 63 37 123q14 23 30 37l230 207v-168q133 -57 133 -199q0 -90 -62.5 -152.5t-152.5 -62.5t-152.5 62.5t-62.5 152.5zM627 1198q0 63 37 123q14 23 30 37l230 207v-168q133 -57 133 -199q0 -90 -62.5 -152.5t-152.5 -62.5t-152.5 62.5t-62.5 152.5z" />
<glyph unicode="&#x201d;" horiz-adv-x="1153" d="M94 1182q0 90 62.5 152.5t152.5 62.5t152.5 -62.5t62.5 -152.5q0 -63 -37 -123q-14 -23 -30 -37l-230 -207v168q-133 57 -133 199zM649 1182q0 90 62.5 152.5t152.5 62.5t152.5 -62.5t62.5 -152.5q0 -63 -37 -123q-14 -23 -30 -37l-230 -207v168q-133 57 -133 199z" />
<glyph unicode="&#x201e;" horiz-adv-x="1077" d="M45 199q0 90 62.5 152.5t152.5 62.5t152.5 -62.5t62.5 -152.5q0 -49 -23.5 -95.5t-43.5 -64.5l-230 -207v168q-133 57 -133 199zM600 197q0 90 62.5 152.5t152.5 62.5t152.5 -62.5t62.5 -152.5q0 -63 -37 -123q-14 -23 -30 -37l-230 -207v168q-133 57 -133 199z" />
<glyph unicode="&#x2022;" horiz-adv-x="862" d="M104 770q0 127 92.5 221t221.5 94q127 0 219 -94t92 -221q0 -129 -90 -223t-221 -94q-129 0 -221.5 94t-92.5 223z" />
<glyph unicode="&#x2026;" horiz-adv-x="1642" d="M43 184q0 90 62.5 152.5t152.5 62.5t152.5 -62.5t62.5 -152.5t-62.5 -152.5t-152.5 -62.5t-152.5 62.5t-62.5 152.5zM602 184q0 90 62.5 152.5t152.5 62.5t152.5 -62.5t62.5 -152.5t-62.5 -152.5t-152.5 -62.5t-152.5 62.5t-62.5 152.5zM1161 184q0 90 62.5 152.5 t152.5 62.5t152.5 -62.5t62.5 -152.5t-62.5 -152.5t-152.5 -62.5t-152.5 62.5t-62.5 152.5z" />
<glyph unicode="&#x202f;" horiz-adv-x="396" />
<glyph unicode="&#x2039;" horiz-adv-x="868" d="M51 715l297 469h428l-297 -469l297 -459h-428z" />
<glyph unicode="&#x203a;" horiz-adv-x="868" d="M51 715l297 469h428l-297 -469l297 -459h-428z" />
<glyph unicode="&#x205f;" horiz-adv-x="495" />
<glyph unicode="&#x2122;" horiz-adv-x="1660" d="M29 1300h235v-636h223v636h45l226 203h-504zM586 645l368 334v-334l371 334v-315h231v849l-337 -296v294l-633 -573v-293z" />
<glyph unicode="&#x25fc;" horiz-adv-x="1546" d="M0 0v1546h1546v-1546h-1546z" />
</font>
</defs>
</svg>
